<svg width="409" height="406" viewBox="0 0 409 406" fill="none" xmlns="http://www.w3.org/2000/svg">
<path d="M166.323 200C150.723 109.6 193.823 37 217.323 12C263.323 12 303.156 31 317.323 40.5C362.923 67.7 387.656 114.167 394.323 134C421.923 202.4 398.156 267.833 382.823 292C352.423 206.8 276.49 164.5 242.323 154C185.923 139.2 168.156 178.5 166.323 200Z" fill="#599DD2"/>
<path d="M243.441 157.6C329.642 188.983 371.227 262.461 381.245 295.277C358.387 335.196 322.105 360.322 306.821 367.895C260.558 393.951 207.944 392.325 187.42 388.254C114.347 378.217 69.3741 325.078 56.0215 299.763C145.064 315.718 219.504 270.843 245.594 246.41C286.464 204.821 261.187 169.874 243.441 157.6Z" fill="#CCCCCC"/>
<path d="M242.261 246.168C171.885 305.014 87.4598 304.15 54.0442 296.363C30.9676 256.57 27.4209 212.58 28.5321 195.559C29.1859 142.467 56.9747 97.7606 70.7874 82.0438C116.112 23.8543 184.639 11.5884 213.236 12.7292C154.784 81.7688 156.284 168.676 164.342 203.5C179.832 259.714 222.742 255.368 242.261 246.168Z" fill="#FFD53C"/>
</svg>
